<svg xmlns="http://www.w3.org/2000/svg" version="1.1" xmlns:xlink="http://www.w3.org/1999/xlink" xmlns:svgjs="http://svgjs.dev/svgjs" width="1080" height="450" preserveAspectRatio="none" viewBox="0 0 1080 450"><g mask="url(&quot;#SvgjsMask1362&quot;)" fill="none"><rect width="1080" height="450" x="0" y="0" fill="url(&quot;#SvgjsLinearGradient1363&quot;)"></rect><use xlink:href="#SvgjsSymbol1370" x="0" y="0"></use><use xlink:href="#SvgjsSymbol1370" x="720" y="0"></use></g><defs><mask id="SvgjsMask1362"><rect width="1080" height="450" fill="#ffffff"></rect></mask><linearGradient x1="14.58%" y1="-35%" x2="85.42%" y2="135%" gradientUnits="userSpaceOnUse" id="SvgjsLinearGradient1363"><stop stop-color="#0e2a47" offset="0"></stop><stop stop-color="#00459e" offset="1"></stop></linearGradient><path d="M-1 0 a1 1 0 1 0 2 0 a1 1 0 1 0 -2 0z" id="SvgjsPath1368"></path><path d="M-3 0 a3 3 0 1 0 6 0 a3 3 0 1 0 -6 0z" id="SvgjsPath1366"></path><path d="M-5 0 a5 5 0 1 0 10 0 a5 5 0 1 0 -10 0z" id="SvgjsPath1364"></path><path d="M2 -2 L-2 2z" id="SvgjsPath1367"></path><path d="M6 -6 L-6 6z" id="SvgjsPath1369"></path><path d="M30 -30 L-30 30z" id="SvgjsPath1365"></path></defs><symbol id="SvgjsSymbol1370"><use xlink:href="#SvgjsPath1364" x="30" y="30" stroke="#1c538e"></use><use xlink:href="#SvgjsPath1365" x="30" y="90" stroke="#1c538e" stroke-width="3"></use><use xlink:href="#SvgjsPath1364" x="30" y="150" stroke="#1c538e"></use><use xlink:href="#SvgjsPath1364" x="30" y="210" stroke="#1c538e"></use><use xlink:href="#SvgjsPath1366" x="30" y="270" stroke="#1c538e"></use><use xlink:href="#SvgjsPath1364" x="30" y="330" stroke="#1c538e"></use><use xlink:href="#SvgjsPath1364" x="30" y="390" stroke="#1c538e"></use><use xlink:href="#SvgjsPath1367" x="30" y="450" stroke="#1c538e"></use><use xlink:href="#SvgjsPath1366" x="90" y="30" stroke="#1c538e"></use><use xlink:href="#SvgjsPath1367" x="90" y="90" stroke="#1c538e"></use><use xlink:href="#SvgjsPath1364" x="90" y="150" stroke="#1c538e"></use><use xlink:href="#SvgjsPath1368" x="90" y="210" stroke="#1c538e"></use><use xlink:href="#SvgjsPath1369" x="90" y="270" stroke="#1c538e"></use><use xlink:href="#SvgjsPath1366" x="90" y="330" stroke="#1c538e"></use><use xlink:href="#SvgjsPath1364" x="90" y="390" stroke="#1c538e"></use><use xlink:href="#SvgjsPath1366" x="90" y="450" stroke="#1c538e"></use><use xlink:href="#SvgjsPath1364" x="150" y="30" stroke="#1c538e"></use><use xlink:href="#SvgjsPath1364" x="150" y="90" stroke="#1c538e"></use><use xlink:href="#SvgjsPath1367" x="150" y="150" stroke="#1c538e"></use><use xlink:href="#SvgjsPath1369" x="150" y="210" stroke="#1c538e"></use><use xlink:href="#SvgjsPath1369" x="150" y="270" stroke="#1c538e"></use><use xlink:href="#SvgjsPath1364" x="150" y="330" stroke="#1c538e"></use><use xlink:href="#SvgjsPath1369" x="150" y="390" stroke="#1c538e"></use><use xlink:href="#SvgjsPath1365" x="150" y="450" stroke="#1c538e" stroke-width="3"></use><use xlink:href="#SvgjsPath1369" x="210" y="30" stroke="#1c538e"></use><use xlink:href="#SvgjsPath1364" x="210" y="90" stroke="#1c538e"></use><use xlink:href="#SvgjsPath1366" x="210" y="150" stroke="#1c538e"></use><use xlink:href="#SvgjsPath1364" x="210" y="210" stroke="#1c538e"></use><use xlink:href="#SvgjsPath1366" x="210" y="270" stroke="#1c538e"></use><use xlink:href="#SvgjsPath1367" x="210" y="330" stroke="#1c538e"></use><use xlink:href="#SvgjsPath1368" x="210" y="390" stroke="#1c538e"></use><use xlink:href="#SvgjsPath1364" x="210" y="450" stroke="#1c538e"></use><use xlink:href="#SvgjsPath1366" x="270" y="30" stroke="#1c538e"></use><use xlink:href="#SvgjsPath1367" x="270" y="90" stroke="#1c538e"></use><use xlink:href="#SvgjsPath1364" x="270" y="150" stroke="#1c538e"></use><use xlink:href="#SvgjsPath1368" x="270" y="210" stroke="#1c538e"></use><use xlink:href="#SvgjsPath1364" x="270" y="270" stroke="#1c538e"></use><use xlink:href="#SvgjsPath1369" x="270" y="330" stroke="#1c538e"></use><use xlink:href="#SvgjsPath1364" x="270" y="390" stroke="#1c538e"></use><use xlink:href="#SvgjsPath1367" x="270" y="450" stroke="#1c538e"></use><use xlink:href="#SvgjsPath1369" x="330" y="30" stroke="#1c538e"></use><use xlink:href="#SvgjsPath1364" x="330" y="90" stroke="#1c538e"></use><use xlink:href="#SvgjsPath1364" x="330" y="150" stroke="#1c538e"></use><use xlink:href="#SvgjsPath1367" x="330" y="210" stroke="#1c538e"></use><use xlink:href="#SvgjsPath1364" x="330" y="270" stroke="#1c538e"></use><use xlink:href="#SvgjsPath1368" x="330" y="330" stroke="#1c538e"></use><use xlink:href="#SvgjsPath1365" x="330" y="390" stroke="#1c538e" stroke-width="3"></use><use xlink:href="#SvgjsPath1366" x="330" y="450" stroke="#1c538e"></use><use xlink:href="#SvgjsPath1364" x="390" y="30" stroke="#1c538e"></use><use xlink:href="#SvgjsPath1367" x="390" y="90" stroke="#1c538e"></use><use xlink:href="#SvgjsPath1368" x="390" y="150" stroke="#1c538e"></use><use xlink:href="#SvgjsPath1368" x="390" y="210" stroke="#1c538e"></use><use xlink:href="#SvgjsPath1364" x="390" y="270" stroke="#1c538e"></use><use xlink:href="#SvgjsPath1367" x="390" y="330" stroke="#1c538e"></use><use xlink:href="#SvgjsPath1366" x="390" y="390" stroke="#1c538e"></use><use xlink:href="#SvgjsPath1369" x="390" y="450" stroke="#1c538e"></use><use xlink:href="#SvgjsPath1366" x="450" y="30" stroke="#1c538e"></use><use xlink:href="#SvgjsPath1369" x="450" y="90" stroke="#1c538e"></use><use xlink:href="#SvgjsPath1366" x="450" y="150" stroke="#1c538e"></use><use xlink:href="#SvgjsPath1364" x="450" y="210" stroke="#1c538e"></use><use xlink:href="#SvgjsPath1367" x="450" y="270" stroke="#1c538e"></use><use xlink:href="#SvgjsPath1364" x="450" y="330" stroke="#1c538e"></use><use xlink:href="#SvgjsPath1369" x="450" y="390" stroke="#1c538e"></use><use xlink:href="#SvgjsPath1367" x="450" y="450" stroke="#1c538e"></use><use xlink:href="#SvgjsPath1364" x="510" y="30" stroke="#1c538e"></use><use xlink:href="#SvgjsPath1367" x="510" y="90" stroke="#1c538e"></use><use xlink:href="#SvgjsPath1366" x="510" y="150" stroke="#1c538e"></use><use xlink:href="#SvgjsPath1364" x="510" y="210" stroke="#1c538e"></use><use xlink:href="#SvgjsPath1364" x="510" y="270" stroke="#1c538e"></use><use xlink:href="#SvgjsPath1364" x="510" y="330" stroke="#1c538e"></use><use xlink:href="#SvgjsPath1369" x="510" y="390" stroke="#1c538e"></use><use xlink:href="#SvgjsPath1366" x="510" y="450" stroke="#1c538e"></use><use xlink:href="#SvgjsPath1367" x="570" y="30" stroke="#1c538e"></use><use xlink:href="#SvgjsPath1369" x="570" y="90" stroke="#1c538e"></use><use xlink:href="#SvgjsPath1364" x="570" y="150" stroke="#1c538e"></use><use xlink:href="#SvgjsPath1369" x="570" y="210" stroke="#1c538e"></use><use xlink:href="#SvgjsPath1368" x="570" y="270" stroke="#1c538e"></use><use xlink:href="#SvgjsPath1369" x="570" y="330" stroke="#1c538e"></use><use xlink:href="#SvgjsPath1367" x="570" y="390" stroke="#1c538e"></use><use xlink:href="#SvgjsPath1367" x="570" y="450" stroke="#1c538e"></use><use xlink:href="#SvgjsPath1367" x="630" y="30" stroke="#1c538e"></use><use xlink:href="#SvgjsPath1369" x="630" y="90" stroke="#1c538e"></use><use xlink:href="#SvgjsPath1368" x="630" y="150" stroke="#1c538e"></use><use xlink:href="#SvgjsPath1365" x="630" y="210" stroke="#1c538e" stroke-width="3"></use><use xlink:href="#SvgjsPath1364" x="630" y="270" stroke="#1c538e"></use><use xlink:href="#SvgjsPath1365" x="630" y="330" stroke="#1c538e" stroke-width="3"></use><use xlink:href="#SvgjsPath1369" x="630" y="390" stroke="#1c538e"></use><use xlink:href="#SvgjsPath1364" x="630" y="450" stroke="#1c538e"></use><use xlink:href="#SvgjsPath1368" x="690" y="30" stroke="#1c538e"></use><use xlink:href="#SvgjsPath1364" x="690" y="90" stroke="#1c538e"></use><use xlink:href="#SvgjsPath1366" x="690" y="150" stroke="#1c538e"></use><use xlink:href="#SvgjsPath1367" x="690" y="210" stroke="#1c538e"></use><use xlink:href="#SvgjsPath1364" x="690" y="270" stroke="#1c538e"></use><use xlink:href="#SvgjsPath1368" x="690" y="330" stroke="#1c538e"></use><use xlink:href="#SvgjsPath1369" x="690" y="390" stroke="#1c538e"></use><use xlink:href="#SvgjsPath1367" x="690" y="450" stroke="#1c538e"></use></symbol></svg>